info: 

The Big Bang Theory S04e05 - The Desperation Emanation [XviD - Eng Mp3] HDTVRip by FQM 



Report	
		
	
		
General
Complete name : K:\\Download Completi\\The.Big.Bang.Theory.S04E05.HDTV.XviD-FQM.avi
Format : AVI
Format/Info : Audio Video Interleave
File size : 175 MiB
Duration : 20mn 13s
Overall bit rate : 1 211 Kbps
Writing application : transcode-1.0.4

Video
ID : 0
Format : MPEG-4 Visual
Format profile : Advanced Simple@L5
Format settings, BVOP : Yes
Format settings, QPel : No
Format settings, GMC : No warppoints
Format settings, Matrix : Default (H.263)
Codec ID : XVID
Codec ID/Hint : XviD
Duration : 20mn 13s
Bit rate : 1 036 Kbps
Width : 624 pixels
Height : 352 pixels
Display aspect ratio : 16:9
Frame rate : 23.976 fps
Color space : YUV
Chroma subsampling : 4:2:0
Bit depth : 8 bits
Scan type : Progressive
Bits/(Pixel*Frame) : 0.197
Stream size : 150 MiB (86%)
Writing library : XviD 1.2.1 (UTC 2008-12-04)

Audio
ID : 1
Format : MPEG Audio
Format version : Version 1
Format profile : Layer 3
Codec ID : 55
Codec ID/Hint : MP3
Duration : 20mn 13s
Bit rate mode : Variable
Bit rate : 128 Kbps
Channel(s) : 2 channels
Sampling rate : 48.0 KHz
Bit depth : 16 bits
Stream size : 23.5 MiB (13%)
Alignment : Aligned on interleaves
Interleave, duration : 24 ms (0.58 video frame)